<svg xmlns="http://www.w3.org/2000/svg" xmlns:xlink="http://www.w3.org/1999/xlink" version="1.1" width="375pt" height="375pt" viewBox="0 0 375 375">
<defs>
<clipPath id="clip_0">
<path transform="matrix(.24,0,0,.24,0,0)" d="M0 0H1562.5V1562.5H0Z" fill-rule="evenodd"/>
</clipPath>
<clipPath id="clip_1">
<path transform="matrix(.24,0,0,.24,0,0)" d="M0 0H1562.5V1562.5H0Z" fill-rule="evenodd"/>
</clipPath>
<clipPath id="clip_2">
<path transform="matrix(.24,0,0,.24,0,0)" d="M265.87239 234.0344H1297.1223V1327.7844H265.87239Z" fill-rule="evenodd"/>
</clipPath>
<clipPath id="clip_3">
<path transform="matrix(.24,0,0,.24,0,0)" d="M641.7769 525.44137H919.9019V728.56637H641.7769Z" fill-rule="evenodd"/>
</clipPath>
<clipPath id="clip_4">
<path transform="matrix(.24,0,0,.24,0,0)" d="M88.47852 892.98928H1485.3535V1171.1143H88.47852Z" fill-rule="evenodd"/>
</clipPath>
<clipPath id="clip_5">
<path transform="matrix(.24,0,0,.24,0,0)" d="M0 0H1562.5V1562.5H0Z" fill-rule="evenodd"/>
</clipPath>
<clipPath id="clip_6">
<path transform="matrix(.24,0,0,.24,0,0)" d="M496.5126 395.98017H1065.2626V858.48019H496.5126Z" fill-rule="evenodd"/>
</clipPath>
<clipPath id="clip_7">
<path transform="matrix(.24,0,0,.24,0,0)" d="M0 0H1562.5V1562.5H0Z" fill-rule="evenodd"/>
</clipPath>
</defs>
<g clip-path="url(#clip_0)">
<path transform="matrix(.75,0,0,.75,0,0)" d="M0 0H500V500H0Z" fill="#ffffff"/>
</g>
<g clip-path="url(#clip_1)">
<path transform="matrix(.75,0,0,.75,0,0)" d="M0 0H500V500H0Z" fill="#ffffff"/>
</g>
<g clip-path="url(#clip_2)">
<path transform="matrix(2.141706,0,0,2.141706,63.80937,56.75196)" d="M115.48 33.71C114.700008 106.56 57.74 122.06 57.74 122.06 57.74 122.06 .78 106.57 0 33.71L57.74 0 115.48 33.71Z" fill="#0c3f67"/>
</g>
<g clip-path="url(#clip_3)">
<path transform="matrix(1.5065835,0,0,1.5065835,154.02646,126.52875)" d="M40.11 26.59V4.84 3.57 1.23C35.8 .41000004 25.75-.97 22.810002 1.03V3.57 4.83 26.24C23.890002 25.69 25.910002 25.029999 29.36 25.029999 32.02 25.04 35.53 25.44 40.11 26.59Z" fill="#dcb625"/>
<path transform="matrix(1.5065835,0,0,1.5065835,154.02646,126.52875)" d="M21.61 26.25V4.84 3.57 1.04C18.68-.96000006 8.620001 .41999997 4.3100016 1.24V3.58 4.84 26.59C14.82 23.94 19.69 25.28 21.61 26.25Z" fill="#dcb625"/>
<path transform="matrix(1.5065835,0,0,1.5065835,154.02646,126.52875)" d="M41.32 4.84V28.16L40.56 27.96C28.09 24.679999 23.69 27.05 22.810002 27.66 22.7 27.74 22.640002 27.789999 22.640002 27.8L22.210001 28.25 21.78 27.8C21.77 27.789999 21.710001 27.74 21.61 27.66 20.730002 27.039999 16.33 24.68 3.8700009 27.96L3.1100009 28.16V4.84H0V31.75H44.43V4.84H41.32Z" fill="#dcb625"/>
</g>
<g clip-path="url(#clip_4)">
<path transform="matrix(.6703969,0,0,.6703969,22.279822,214.31742)" d="M1.523438 32.73828C1.523438 32.73828 20.757813 27.582032 38.1875 32.40625L38.51953 20.128907C38.51953 20.128907 35.67578 14.578125 68.46094 9.84375 68.46094 9.84375 101.22266 4.921875 114.00391 5.113281L170.57422 2.046875 194.21485 1.628906 267.8711 .636719 318.5547 2.046875C318.5547 2.046875 369.98439 3.125 411.28907 7.601562 452.60157 12.082031 457.41017 18.800782 457.41017 18.800782L458.23829 32.73828C458.23829 32.73828 475.2461 27.261719 495.40235 33.066408L480.8047 57.371095 495.40235 85.078128C495.40235 85.078128 488.10157 81.17969 479.14454 83.16797 479.14454 83.16797 462.8047 85.328128 455.2539 89.80469 455.2539 89.80469 445.46485 94.36719 430.28517 95.36328 430.28517 95.36328 412.3672 99.92578 414.10939 72.30469L413.6953 59.03125 393.95314 57.039064 347.0078 54.054689 296.73829 52.5625 245.39453 52.0625 197.53125 52.726564 144.35938 54.63672C144.35938 54.63672 99.32031 56.54297 82.8125 59.195314L82.31641 77.61328C82.31641 77.61328 83.12891 92.921878 72.94141 94.62109 72.94141 94.62109 68.546878 96.9375 56.51953 93.953128 56.51953 93.953128 25.328125 84.91016 25.082032 84.74609 24.832032 84.578128 12.636719 80.67969 1.523438 84.49609L15.625 57.539064 1.523438 33.816408V32.73828" fill="#ffffff"/>
<path transform="matrix(.6703969,0,0,.6703969,22.279822,214.31742)" d="M455.08595 88.46094C440.89064 93.07422 427.48439 97.43359 420.4453 92.32031 416.85939 89.71484 415.11329 84.75781 415.11329 77.171878 415.11329 77.16797 415.11329 77.16406 415.11329 77.16016 415.11329 77.16016 415.11329 77.15625 415.11329 77.15234L415.10548 76.58594C415.08595 73.48047 415.73439 71.51172 417.03517 70.72656 420.1289 68.86719 427.21485 72.875 434.0703 76.75391 440.39454 80.33203 446.8828 84.00391 451.71876 84.00391 453.0547 84.00391 454.26173 83.72266 455.3086 83.08594 458.0039 81.4375 459.1953 77.73047 458.95704 71.75781 458.95704 71.75781 458.95704 71.75391 458.95704 71.75391V33.628908C459.77345 32.765626 465.8164 31.539063 476.64845 31.539063 486.90626 31.539063 492.8711 32.640626 494.16798 33.48828L479.80079 56.64453C479.60939 56.953126 479.59376 57.339845 479.76564 57.660158L493.07423 82.921878C482.9961 79.38281 468.82814 83.99219 455.08595 88.46094ZM456.90626 71.75391C456.90626 71.76172 456.91407 71.76953 456.91407 71.77734 456.91407 71.78125 456.91017 71.78906 456.91017 71.796878 457.1211 76.91406 456.22267 80.125 454.23829 81.33594 450.4375 83.66016 442.27735 79.046878 435.07814 74.97266 427.3711 70.61328 420.09376 66.49219 415.98048 68.97266 415.61329 69.19531 415.28126 69.46094 414.98439 69.76953L414.8164 60.35547C453.48439 64.921878 456.90626 70.08984 456.90626 71.75391ZM248.17578 51.210939C193.19922 51.210939 141.95703 52.945314 103.88672 56.09375 58.23828 59.867189 43.929689 64.65625 39.445314 68.10156V65.44922C41.007814 63.476564 47.61328 58.851564 75.44922 55.472658 75.73047 55.4375 75.92969 55.183595 75.89844 54.902345 75.86328 54.621095 75.609378 54.421876 75.328128 54.45703 50.898439 57.421876 42.382814 61.375 39.445314 63.976564V60.433595C40.929689 58.328126 46.703126 53.66797 69.05859 51.19922 69.33984 51.16797 69.54297 50.91797 69.51172 50.63672 69.48047 50.35547 69.22656 50.152345 68.94531 50.183595 49.289064 52.351564 42.089845 56.253908 39.445314 58.871095V55.20703C41.007814 53.234376 47.61328 48.609376 75.44922 45.23047 75.73047 45.195314 75.92969 44.941408 75.89844 44.660158 75.86328 44.378908 75.609378 44.183595 75.328128 44.214845 50.898439 47.179689 42.382814 51.132814 39.445314 53.734376V50.191408C40.929689 48.085939 46.703126 43.42578 69.05859 40.95703 69.33984 40.929689 69.54297 40.67578 69.51172 40.39453 69.48047 40.11328 69.22656 39.90625 68.94531 39.941408 49.289064 42.109376 42.089845 46.01172 39.445314 48.628908V44.964845C41.007814 42.992189 47.61328 38.367189 75.44922 34.98828 75.73047 34.953126 75.92969 34.69922 75.89844 34.41797 75.86328 34.13672 75.609378 33.941408 75.328128 33.972658 50.898439 36.9375 42.382814 40.890626 39.445314 43.492189V39.94922C40.929689 37.84375 46.703126 33.183595 69.05859 30.71875 69.33984 30.6875 69.54297 30.433594 69.51172 30.152344 69.48047 29.871094 69.22656 29.667969 68.94531 29.699219 49.289064 31.867188 42.089845 35.773439 39.445314 38.38672V34.722658C41.007814 32.75 47.61328 28.125 75.44922 24.746094 75.73047 24.710938 75.92969 24.457032 75.89844 24.175782 75.86328 23.894532 75.609378 23.699219 75.328128 23.730469 50.898439 26.695313 42.382814 30.648438 39.445314 33.25V29.707032C40.929689 27.601563 46.703126 22.941407 69.05859 20.476563 69.33984 20.445313 69.54297 20.191407 69.51172 19.910157 69.48047 19.628907 69.22656 19.425782 68.94531 19.457032 49.289064 21.625 42.089845 25.53125 39.445314 28.144532V24.480469C41.007814 22.507813 47.61328 17.882813 75.44922 14.503906 75.73047 14.472656 75.92969 14.214844 75.89844 13.933594 75.86328 13.65625 75.609378 13.453125 75.328128 13.488281 50.898439 16.453125 42.382814 20.40625 39.445314 23.007813V20.546875C39.445314 19.378907 41.125 16.3125 56.660158 13.007812 67.69141 10.660156 83.63672 8.613281 104.05469 6.9257814 142.07032 3.78125 193.2539 2.046875 248.17578 2.046875 303.10157 2.046875 354.28517 3.78125 392.30079 6.9257814 452.25 11.8828129 456.90626 18.605469 456.90626 20.546875V22.988282C453.94923 20.386719 445.41017 16.445313 421.05079 13.488281 420.77735 13.457031 420.51564 13.652344 420.48048 13.933594 420.44923 14.214844 420.64845 14.472656 420.9297 14.503906 448.47657 17.847657 455.2461 22.375 456.90626 24.457032V28.085938C456.3203 27.507813 455.51564 26.871094 454.39845 26.203125 449.26173 23.132813 440.1914 20.863282 427.4336 19.457032 427.15235 19.425782 426.89845 19.628907 426.8672 19.910157 426.83985 20.191407 427.03907 20.445313 427.3203 20.476563 449.5703 22.929688 455.39064 27.535157 456.90626 29.664063V33.23047C453.94923 30.628907 445.41017 26.6875 421.05079 23.730469 420.77735 23.699219 420.51564 23.894532 420.48048 24.175782 420.44923 24.457032 420.64845 24.710938 420.9297 24.746094 448.47657 28.089844 455.2461 32.617189 456.90626 34.69922V38.328126C456.3203 37.75 455.51564 37.11328 454.39845 36.445314 449.26173 33.375 440.1914 31.105469 427.4336 29.699219 427.15235 29.667969 426.89845 29.871094 426.8672 30.152344 426.83985 30.433594 427.03907 30.6875 427.3203 30.71875 449.5703 33.171876 455.39064 37.777345 456.90626 39.90625V43.46875C453.94923 40.867189 445.41017 36.929689 421.05079 33.972658 420.77735 33.945314 420.51564 34.13672 420.48048 34.41797 420.44923 34.69922 420.64845 34.953126 420.9297 34.98828 448.47657 38.33203 455.2461 42.85547 456.90626 44.9375V48.570314C456.3203 47.992189 455.51564 47.351564 454.39845 46.683595 449.26173 43.617189 440.1914 41.347658 427.4336 39.941408 427.15235 39.910158 426.89845 40.11328 426.8672 40.39453 426.83985 40.67578 427.03907 40.929689 427.3203 40.95703 449.5703 43.410158 455.39064 48.015626 456.90626 50.148439V53.710939C453.94923 51.109376 445.41017 47.171876 421.05079 44.214845 420.77735 44.183595 420.51564 44.378908 420.48048 44.660158 420.44923 44.941408 420.64845 45.195314 420.9297 45.23047 448.47657 48.57422 455.2461 53.097658 456.90626 55.179689V58.808595C456.3203 58.23047 455.51564 57.59375 454.39845 56.92578 449.26173 53.859376 440.1914 51.589845 427.4336 50.183595 427.15235 50.152345 426.89845 50.35547 426.8672 50.63672 426.83985 50.91797 427.03907 51.16797 427.3203 51.19922 449.5703 53.652345 455.39064 58.257814 456.90626 60.390626V63.953126C453.94923 61.351564 445.41017 57.414064 421.05079 54.45703 420.77735 54.42578 420.51564 54.621095 420.48048 54.902345 420.44923 55.183595 420.64845 55.4375 420.9297 55.472658 448.47657 58.816408 455.2461 63.339845 456.90626 65.421878V68.10156C452.42189 64.65625 438.11329 59.867189 392.46876 56.09375 354.39845 52.945314 303.15626 51.210939 248.17578 51.210939ZM81.40625 69.77344C81.109378 69.46094 80.77734 69.19531 80.41016 68.97266 76.28906 66.49219 69.00781 70.61328 61.29297 74.97266 54.089845 79.046878 45.921876 83.66797 42.117189 81.33594 40.132814 80.125 39.234376 76.91406 39.445314 71.796878 39.445314 71.78906 39.441408 71.78125 39.441408 71.77734 39.441408 71.76953 39.445314 71.76172 39.445314 71.75391 39.445314 70.58984 41.125 67.51953 56.660158 64.21484 63.242189 62.816408 71.58594 61.523439 81.57031 60.351564L81.40625 69.77344ZM75.94141 92.32031C68.90625 97.43359 55.496095 93.07422 41.30078 88.46094 27.558594 83.99219 13.386719 79.38281 3.3125 82.921878L16.625 57.660158C16.792969 57.339845 16.78125 56.953126 16.589844 56.64453L2.203125 33.464845C4.546875 31.667969 22.371094 30.210938 32.890626 32.07422 36.32422 32.683595 37.191408 33.398439 37.398439 33.648439V71.75391C37.398439 71.75391 37.398439 71.75781 37.398439 71.75781 37.160158 77.73047 38.351564 81.43359 41.046876 83.08203 42.09375 83.72266 43.304689 84.00391 44.640626 84.00391 49.48047 84.00391 55.976564 80.33203 62.30078 76.75391 69.16406 72.875 76.26172 68.86328 79.35156 70.72656 80.65234 71.51172 81.30078 73.48047 81.28516 76.58203L81.27344 77.15234C81.27344 77.15625 81.27734 77.16016 81.27734 77.16016 81.27734 77.16406 81.27344 77.16797 81.27344 77.171878 81.27344 84.75781 79.53125 89.71484 75.94141 92.32031ZM481.84767 57.222658 496.23439 34.046876C496.33595 33.882814 496.38673 33.695314 496.38673 33.507814 496.38673 30.1875 485.65235 29.488282 476.64845 29.488282 466.58985 29.488282 461.4336 30.320313 458.95704 31.386719V20.546875C458.95704 18.03125 458.95704 10.3828129 392.46876 4.882812 354.39845 1.734375 303.15626 0 248.17578 0 193.19922 0 141.95703 1.734375 103.88672 4.882812 37.398439 10.3828129 37.398439 18.03125 37.398439 20.546875V31.285157C31.691407 28.578125 15.84375 28.980469 8.9921879 29.792969 1.070312 30.730469 0 32.195314 0 33.507814 0 33.695314 .054687505 33.882814 .152344 34.046876L14.5390629 57.222658 .117188 84.59375C-.09375 84.99219-.015625 85.484378 .308594 85.80078 .632812 86.12109 1.128906 86.18359 1.523438 85.96094 10.875 80.72266 26.019532 85.64453 40.66797 90.40625 50.464845 93.59375 59.898439 96.66016 67.4375 96.66016 71.21484 96.66016 74.515628 95.890628 77.14453 93.98047 81.30078 90.96094 83.32031 85.46875 83.32422 77.1875 83.328128 76.99219 83.33203 76.80078 83.33203 76.61328L83.625 60.11328C89.83594 59.40625 96.64453 58.746095 104.05469 58.132814 142.07032 54.98828 193.2539 53.257814 248.17578 53.257814 303.10157 53.257814 354.28517 54.98828 392.30079 58.132814 400 58.76953 406.78126 59.4375 412.76564 60.117189L413.0547 76.61328C413.0586 76.80469 413.0625 77 413.0664 77.19922V77.203128C413.0664 77.203128 413.0664 77.203128 413.0664 77.203128 413.0703 85.47656 415.09376 90.96484 419.2422 93.98047 421.875 95.890628 425.17579 96.66016 428.94923 96.66016 436.48829 96.66016 445.92579 93.59375 455.71876 90.40625 470.36329 85.64453 485.51564 80.72266 494.86329 85.96094 495.26173 86.18359 495.7539 86.12109 496.07814 85.80078 496.40235 85.484378 496.48048 84.99219 496.26954 84.59375L481.84767 57.222658" fill="#0c3f67"/>
</g>
<g clip-path="url(#clip_5)">
<text xml:space="preserve" transform="matrix(.735088 -.1488142 .1488142 .735088 72.787158 237.02307)" font-size="13.33" font-family="Montserrat" font-weight="bold"><tspan y="13" x="0">M</tspan></text>
<text xml:space="preserve" transform="matrix(.73707827 -.1386207 .1386207 .73707827 81.117778 235.33663)" font-size="13.33" font-family="Montserrat" font-weight="bold"><tspan y="13" x="0">A</tspan></text>
<text xml:space="preserve" transform="matrix(.7389271 -.12840064 .12840064 .7389271 88.09399 234.01604)" font-size="13.33" font-family="Montserrat" font-weight="bold"><tspan y="13" x="0">M</tspan></text>
<text xml:space="preserve" transform="matrix(.74046507 -.119212049 .119212049 .74046507 96.460498 232.56781)" font-size="13.33" font-family="Montserrat" font-weight="bold"><tspan y="13" x="0">T</tspan></text>
<text xml:space="preserve" transform="matrix(.74175 -.11093655 .11093655 .74175 101.88397 231.6861)" font-size="13.33" font-family="Montserrat" font-weight="bold"><tspan y="13" x="0">A</tspan></text>
<text xml:space="preserve" transform="matrix(.74258926 -.10517216 .10517216 .74258926 108.870967 230.64913)" font-size="13.33" font-family="Montserrat" font-weight="bold"><tspan y="13" x="0"> </tspan></text>
<text xml:space="preserve" transform="matrix(.74289539 -.10298742 .10298742 .74289539 110.511188 230.41582)" font-size="13.33" font-family="Montserrat" font-weight="bold"><tspan y="13" x="0"> </tspan></text>
<text xml:space="preserve" transform="matrix(.7437944 -.09628047 .09628047 .7437944 112.185977 230.16585)" font-size="13.33" font-family="Montserrat" font-weight="bold"><tspan y="13" x="0">M</tspan></text>
<text xml:space="preserve" transform="matrix(.74498209 -.08661294 .08661294 .74498209 120.61049 229.0786)" font-size="13.33" font-family="Montserrat" font-weight="bold"><tspan y="13" x="0">E</tspan></text>
<text xml:space="preserve" transform="matrix(.746044 -.076930809 .076930809 .746044 126.70349 228.359)" font-size="13.33" font-family="Montserrat" font-weight="bold"><tspan y="13" x="0">M</tspan></text>
<text xml:space="preserve" transform="matrix(.74705865 -.06635798 .06635798 .74705865 135.16002 227.48618)" font-size="13.33" font-family="Montserrat" font-weight="bold"><tspan y="13" x="0">O</tspan></text>
<text xml:space="preserve" transform="matrix(.7478294 -.057019514 .057019514 .7478294 142.57254 226.82653)" font-size="13.33" font-family="Montserrat" font-weight="bold"><tspan y="13" x="0">R</tspan></text>
<text xml:space="preserve" transform="matrix(.74826797 -.05094108 .05094108 .74826797 149.1597 226.33008)" font-size="13.33" font-family="Montserrat" font-weight="bold"><tspan y="13" x="0">I</tspan></text>
<text xml:space="preserve" transform="matrix(.74867567 -.044550394 .044550394 .74867567 151.70298 226.14434)" font-size="13.33" font-family="Montserrat" font-weight="bold"><tspan y="13" x="0">A</tspan></text>
<text xml:space="preserve" transform="matrix(.7491098 -.03653055 .03653055 .7491098 158.77182 225.72606)" font-size="13.33" font-family="Montserrat" font-weight="bold"><tspan y="13" x="0">L</tspan></text>
<text xml:space="preserve" transform="matrix(.7493118 -.032122654 .032122654 .7493118 163.71913 225.48766)" font-size="13.33" font-family="Montserrat" font-weight="bold"><tspan y="13" x="0"> </tspan></text>
<text xml:space="preserve" transform="matrix(.749403 -.029918457 .029918457 .749403 165.3743 225.41571)" font-size="13.33" font-family="Montserrat" font-weight="bold"><tspan y="13" x="0"> </tspan></text>
<text xml:space="preserve" transform="matrix(.74961277 -.024097069 .024097069 .74961277 167.05817 225.3356)" font-size="13.33" font-family="Montserrat" font-weight="bold"><tspan y="13" x="0">A</tspan></text>
<text xml:space="preserve" transform="matrix(.74984636 -.015180604 .015180604 .74984636 174.1428 225.10662)" font-size="13.33" font-family="Montserrat" font-weight="bold"><tspan y="13" x="0">C</tspan></text>
<text xml:space="preserve" transform="matrix(.74997386 -.006261993 .006261993 .74997386 180.45006 224.9729)" font-size="13.33" font-family="Montserrat" font-weight="bold"><tspan y="13" x="0">A</tspan></text>
<text xml:space="preserve" transform="matrix(.7499933 .0031620269 -.0031620269 .7499933 187.54219 224.90996)" font-size="13.33" font-family="Montserrat" font-weight="bold"><tspan y="13" x="0">D</tspan></text>
<text xml:space="preserve" transform="matrix(.74990496 .011939848 -.011939848 .74990496 194.59934 224.93888)" font-size="13.33" font-family="Montserrat" font-weight="bold"><tspan y="13" x="0">E</tspan></text>
<text xml:space="preserve" transform="matrix(.74968668 .0216776 -.0216776 .74968668 200.73413 225.02486)" font-size="13.33" font-family="Montserrat" font-weight="bold"><tspan y="13" x="0">M</tspan></text>
<text xml:space="preserve" transform="matrix(.74934026 .031452028 -.031452028 .74934026 209.22515 225.27384)" font-size="13.33" font-family="Montserrat" font-weight="bold"><tspan y="13" x="0">Y</tspan></text>
<text xml:space="preserve" transform="matrix(.7491002 .036726856 -.036726856 .7491002 215.37902 225.53772)" font-size="13.33" font-family="Montserrat" font-weight="bold"><tspan y="13" x="0">,</tspan></text>
<text xml:space="preserve" transform="matrix(.7489858 .03899059 -.03899059 .7489858 217.12413 225.62244)" font-size="13.33" font-family="Montserrat" font-weight="bold"><tspan y="13" x="0"> </tspan></text>
<text xml:space="preserve" transform="matrix(.74886789 .041193524 -.041193524 .74886789 218.77867 225.7076)" font-size="13.33" font-family="Montserrat" font-weight="bold"><tspan y="13" x="0"> </tspan></text>
<text xml:space="preserve" transform="matrix(.7485655 .046364074 -.046364074 .7485655 220.4572 225.7901)" font-size="13.33" font-family="Montserrat" font-weight="bold"><tspan y="13" x="0">E</tspan></text>
<text xml:space="preserve" transform="matrix(.7479622 .05524968 -.05524968 .7479622 226.57457 226.16182)" font-size="13.33" font-family="Montserrat" font-weight="bold"><tspan y="13" x="0">N</tspan></text>
<text xml:space="preserve" transform="matrix(.7472136 .06458995 -.06458995 .7472136 233.80693 226.69376)" font-size="13.33" font-family="Montserrat" font-weight="bold"><tspan y="13" x="0">G</tspan></text>
<text xml:space="preserve" transform="matrix(.7464966 .0724071 -.0724071 .7464966 240.59136 227.2817)" font-size="13.33" font-family="Montserrat" font-weight="bold"><tspan y="13" x="0">L</tspan></text>
<text xml:space="preserve" transform="matrix(.7459982 .077373187 -.077373187 .7459982 245.52571 227.76194)" font-size="13.33" font-family="Montserrat" font-weight="bold"><tspan y="13" x="0">I</tspan></text>
<text xml:space="preserve" transform="matrix(.7454046 .08289747 -.08289747 .7454046 248.0562 228.01598)" font-size="13.33" font-family="Montserrat" font-weight="bold"><tspan y="13" x="0">S</tspan></text>
<text xml:space="preserve" transform="matrix(.74439236 .09154267 -.09154267 .74439236 253.84851 228.65247)" font-size="13.33" font-family="Montserrat" font-weight="bold"><tspan y="13" x="0">H</tspan></text>
<text xml:space="preserve" transform="matrix(.7436449 .09742819 -.09742819 .7436449 261.01774 229.54296)" font-size="13.33" font-family="Montserrat" font-weight="bold"><tspan y="13" x="0"> </tspan></text>
<text xml:space="preserve" transform="matrix(.7433551 .09961516 -.09961516 .7433551 262.66056 229.75719)" font-size="13.33" font-family="Montserrat" font-weight="bold"><tspan y="13" x="0"> </tspan></text>
<text xml:space="preserve" transform="matrix(.74267759 .10454641 -.10454641 .74267759 264.3258 229.97086)" font-size="13.33" font-family="Montserrat" font-weight="bold"><tspan y="13" x="0">S</tspan></text>
<text xml:space="preserve" transform="matrix(.7415094 .11253338 -.11253338 .7415094 270.0917 230.77777)" font-size="13.33" font-family="Montserrat" font-weight="bold"><tspan y="13" x="0">C</tspan></text>
<text xml:space="preserve" transform="matrix(.7401012 .12145002 -.12145002 .7401012 276.33076 231.71819)" font-size="13.33" font-family="Montserrat" font-weight="bold"><tspan y="13" x="0">H</tspan></text>
<text xml:space="preserve" transform="matrix(.7384534 .13109757 -.13109757 .7384534 283.49098 232.88874)" font-size="13.33" font-family="Montserrat" font-weight="bold"><tspan y="13" x="0">O</tspan></text>
<text xml:space="preserve" transform="matrix(.7366558 .14084834 -.14084834 .7366558 290.82325 234.18637)" font-size="13.33" font-family="Montserrat" font-weight="bold"><tspan y="13" x="0">O</tspan></text>
<text xml:space="preserve" transform="matrix(.73505857 .1489596 -.1489596 .73505857 298.1233 235.58557)" font-size="13.33" font-family="Montserrat" font-weight="bold"><tspan y="13" x="0">L</tspan></text>
<text xml:space="preserve" transform="matrix(.7341694 .15328162 -.15328162 .7341694 302.97709 236.57242)" font-size="13.33" font-family="Montserrat" font-weight="bold"><tspan y="13" x="0"> </tspan></text>
</g>
<g clip-path="url(#clip_6)">
<path transform="matrix(.7800905,0,0,.7800905,119.163028,95.076519)" d="M136.71 14.8 134.43001 13.1C133.56002 12.400001 132.77 11.67 132.23001 10.690001 131.68001 9.740001 131.32 8.630001 131.14002 7.4400007 130.78002 5.0800006 131.08002 2.4600006 132.42002 .00000047683718 133.37001 .51000049 134.33002 1.0000005 135.23001 1.6100005 136.31002 2.2900005 137.18001 3.1800004 137.82 4.200001 138.14002 4.710001 138.41 5.2400009 138.59001 5.810001 138.77 6.390001 138.89002 7.000001 138.95001 7.6100008 139.19 10.04 138.41 12.6 136.71 14.8Z" fill="#dcb625"/>
<path transform="matrix(.7800905,0,0,.7800905,119.163028,95.076519)" d="M136.04 15.66 133.79 13.98C132.93 13.289999 131.82999 13.03 130.78 12.929999 129.70999 12.849999 128.61 13.03 127.56 13.44 125.439998 14.28 123.49 16.16 122.17 18.58 122.88 18.96 123.6 19.31 124.259998 19.77 125.06 20.28 125.95999 20.52 126.95 20.54 127.439998 20.550002 127.96 20.5 128.47 20.410002 128.98 20.340003 129.49 20.210001 130.02 20.04 132.12 19.35 134.35 17.86 136.04 15.66Z" fill="#dcb625"/>
<path transform="matrix(.7800905,0,0,.7800905,119.163028,95.076519)" d="M143.93 21.16C143.26 20.49 142.60999 19.8 141.90999 19.16 140.20999 17.71 139.48 15.48 139.38999 13.129999 139.30998 10.789999 139.99999 8.169999 141.64998 5.9299995L144.23998 7.8699996C146.18997 9.5199999 147.19998 11.9 147.13997 14.299999 147.03 16.76 145.9 19.2 143.93 21.16Z" fill="#dcb625"/>
<path transform="matrix(.7800905,0,0,.7800905,119.163028,95.076519)" d="M143.16 21.93C142.5 21.27 141.86 20.59 141.17 19.960001 139.49 18.53 137.28 18.01 135.05 18.61 132.8 19.210001 130.67 20.76 129.02 22.990002L130.95 24.430003C132.37999 25.660002 134.4 25.920002 136.62999 25.460003 138.79 25.05 141.18 23.88 143.16 21.93Z" fill="#dcb625"/>
<path transform="matrix(.7800905,0,0,.7800905,119.163028,95.076519)" d="M150.26 28.41 149.42 27.26 148.5 26.18C147.05 24.49 146.61 22.18 146.8 19.86 147.04001 17.51 148.09 14.990001 150.02 12.990001L152.3 15.290001C153.22 16.18 153.79001 17.300002 154.12001 18.460001 154.45001 19.630002 154.52 20.84 154.33002 22.03 154.16002 23.210001 153.69002 24.390002 152.99002 25.480002 152.28 26.58 151.36 27.56 150.26 28.41Z" fill="#dcb625"/>
<path transform="matrix(.7800905,0,0,.7800905,119.163028,95.076519)" d="M149.39 29.07 148.56 27.94 147.65 26.87C146.20999 25.19 144.09 24.390002 141.76999 24.720002 139.48 25.000002 137.16999 26.240002 135.23999 28.240002L136.93999 29.95C137.62999 30.6 138.40999 31.1 139.32999 31.400002 140.24999 31.7 141.30998 31.800002 142.43999 31.710001 143.57999 31.62 144.76 31.380002 145.93 30.95 147.1 30.53 148.28 29.91 149.39 29.07Z" fill="#dcb625"/>
<path transform="matrix(.7800905,0,0,.7800905,119.163028,95.076519)" d="M155.59 36.42C155.12999 35.589998 154.59999 34.8 154.09999 33.989999 153.49999 33.05 153.18999 31.979998 153.06 30.879998 152.9 29.799998 152.97 28.659998 153.26 27.499997 153.83 25.189997 155.20999 22.829997 157.37999 21.099997L159.29999 23.709998C160.85999 25.729998 161.10999 28.359997 160.41999 30.669999 159.73 32.99 158.02 35.04 155.59 36.42Z" fill="#dcb625"/>
<path transform="matrix(.7800905,0,0,.7800905,119.163028,95.076519)" d="M154.64 36.96C154.19 36.14 153.66 35.37 153.17 34.57 152.58 33.64 151.8 32.89 150.84999 32.4 149.87 31.930003 148.76999 31.680003 147.62999 31.660002 145.34 31.62 142.9 32.54 140.71999 34.27L142.13999 36.22C143.30998 37.7 145.09999 38.550004 147.34999 38.7 149.61 38.83 152.24 38.32 154.64 36.96Z" fill="#dcb625"/>
<path transform="matrix(.7800905,0,0,.7800905,119.163028,95.076519)" d="M159.78 45.08 158.64 42.47C158.42 41.960004 158.26 41.43 158.17 40.89 158.06999 40.35 157.99 39.82 157.99 39.27 157.99 38.170003 158.22 37.04 158.66 35.93 159.57 33.69 161.17 31.57 163.56 30.150002 164.16 31.050002 164.63 32.02 165.15 32.97 165.75 34.09 166.06 35.300004 166.11 36.49 166.13 37.690004 165.83 38.910005 165.33 40.010004 164.32 42.24 162.36 44.04 159.78 45.08Z" fill="#dcb625"/>
<path transform="matrix(.7800905,0,0,.7800905,119.163028,95.076519)" d="M158.78 45.49 157.65 42.920003C157.43 42.420003 157.15 41.95 156.81999 41.54 156.48 41.13 156.04999 40.780004 155.60999 40.48 154.70999 39.88 153.66999 39.48 152.54999 39.3 150.32999 38.93 147.70999 39.559999 145.32999 40.989999 145.79 41.649999 146.11998 42.39 146.49999 43.089998 146.93999 43.929998 147.60999 44.589998 148.45999 45.099996 149.28 45.619997 150.23 46.019994 151.32999 46.239995 153.52 46.69 156.2 46.53 158.78 45.49Z" fill="#dcb625"/>
<path transform="matrix(.7800905,0,0,.7800905,119.163028,95.076519)" d="M162.78 54.23 162.04 51.48C161.4 49.35 161.73 47.11 162.93 44.989999 164.06999 42.92 165.95 41.019998 168.51 39.92 168.93 40.92 169.40999 41.89 169.73999 42.92 170.16999 44.12 170.31 45.359998 170.18 46.559999 170.12 47.159997 169.98999 47.739999 169.79999 48.3 169.58998 48.87 169.30998 49.42 168.97998 49.94 167.67 52 165.48 53.54 162.78 54.23Z" fill="#dcb625"/>
<path transform="matrix(.7800905,0,0,.7800905,119.163028,95.076519)" d="M161.73 54.5 161 51.79C160.36 49.68 158.56 48.170003 156.43 47.52 154.21999 46.89 151.54999 47.16 149.01 48.260004 149.31999 49.000005 149.7 49.710004 149.93 50.480005 150.23999 51.370004 150.79999 52.120004 151.56999 52.750005 151.95 53.060007 152.37999 53.340005 152.84999 53.580007 153.29999 53.830007 153.77999 54.060007 154.29999 54.240007 156.37 54.98 159.04 55.19 161.73 54.5Z" fill="#dcb625"/>
<path transform="matrix(.7800905,0,0,.7800905,119.163028,95.076519)" d="M164.56 63.68C164.43 62.74 164.38 61.79 164.2 60.86 163.98999 59.760004 164.06999 58.670003 164.37999 57.600004 164.68999 56.54 165.26999 55.49 165.93 54.550004 167.31 52.65 169.46999 51.010004 172.15 50.260004L172.98999 53.390005C173.52999 55.880006 172.81999 58.390005 171.32999 60.24 169.72 62.12 167.32 63.36 164.56 63.68Z" fill="#dcb625"/>
<path transform="matrix(.7800905,0,0,.7800905,119.163028,95.076519)" d="M163.48 63.81C163.36 62.88 163.31 61.95 163.12 61.030004 162.68 58.870004 161.28 57.090005 159.12999 56.200006 156.98999 55.290006 154.35999 55.190008 151.68 55.940008L152.31 58.260007C152.7 60.100008 154.09999 61.560007 156.16 62.570009 158.12 63.58 160.72 64.14 163.48 63.81Z" fill="#dcb625"/>
<path transform="matrix(.7800905,0,0,.7800905,119.163028,95.076519)" d="M165.1 73.36C165.17002 72.41 165.09001 71.46 165.07 70.520008 165.03002 69.4 165.27 68.33 165.74 67.310009 166.22 66.3 166.79001 65.350009 167.63 64.50001 169.27 62.800008 171.65001 61.460008 174.40001 61.070009L174.77 64.29001C174.84001 64.920009 174.84001 65.55001 174.77 66.15001 174.66 66.76001 174.49 67.350009 174.26001 67.91001 173.8 69.030017 173.09001 70.030017 172.21 70.85001 170.47 72.5 167.87 73.4 165.1 73.36Z" fill="#dcb625"/>
<path transform="matrix(.7800905,0,0,.7800905,119.163028,95.076519)" d="M164.01 73.34C164.08 72.409999 164 71.46999 163.98 70.53999 163.94 69.439998 163.62 68.399997 163.06999 67.48999 162.53 66.57999 161.64 65.80999 160.68 65.21999 158.70999 64.02999 156.12999 63.579996 153.37 63.969995L153.64 66.35999C153.69 66.829998 153.81999 67.27999 154 67.71999 154.15 68.159999 154.36 68.579998 154.63 68.979999 155.17 69.78 155.93001 70.509998 156.87001 71.149997 158.78 72.4 161.22 73.3 164.01 73.34Z" fill="#dcb625"/>
<path transform="matrix(.7800905,0,0,.7800905,119.163028,95.076519)" d="M164.34 83.02 164.66 80.189998C164.98001 77.979999 166.11 76.03999 168 74.56 169.88 73.1 172.43 72.079998 175.19 72.07 175.2 73.15 175.13 74.23 175.1 75.31 175.05 76.579998 174.73001 77.78 174.15001 78.829998 173.52 79.88 172.68001 80.77 171.68001 81.46999 169.69 82.87 167.09 83.43 164.34 83.02Z" fill="#dcb625"/>
<path transform="matrix(.7800905,0,0,.7800905,119.163028,95.076519)" d="M163.26 82.86 163.58 80.07C163.90001 77.88 162.77 75.79 161.02 74.36 159.25 72.92 156.77 72.13 153.97 72.15 153.98 72.950008 153.91 73.76 153.89 74.560009 153.85 75.51 154.12 76.420009 154.56999 77.29001 154.98 78.15001 155.62999 78.98001 156.45999 79.73001 158.12 81.22 160.51 82.45 163.26 82.86Z" fill="#dcb625"/>
<path transform="matrix(.7800905,0,0,.7800905,119.163028,95.076519)" d="M162.26 92.49 163 89.74C163.33 88.67 163.75 87.68 164.44 86.82 165.12 85.96 166.02 85.21 167.06 84.61 169.14 83.41 171.68 82.73 174.45999 83.090007 174.34999 84.16 174.20999 85.240009 173.98999 86.29 173.49999 88.8 172.01999 90.86 169.77999 91.95 167.59 93.06 164.93 93.26 162.26 92.49Z" fill="#dcb625"/>
<path transform="matrix(.7800905,0,0,.7800905,119.163028,95.076519)" d="M161.21 92.19 161.94 89.48C162.26001 88.420009 162.13 87.32 161.82 86.29 161.5 85.26 160.93001 84.3 160.16 83.48 158.63 81.82 156.14 80.69 153.41 80.340007 153.33 81.14001 153.24 81.94 153.06 82.72 152.68 84.57 153.55 86.49 154.91 88.18 156.35 89.88 158.54 91.41 161.21 92.19Z" fill="#dcb625"/>
<path transform="matrix(.7800905,0,0,.7800905,119.163028,95.076519)" d="M158.95 101.6 160.09 98.99C160.81999 96.88 162.59 95.369998 164.79 94.439998 166.93 93.509998 169.62999 93.189998 172.31 93.909999L171.45 97.03999C170.59999 99.45 168.8 101.27 166.51 102.079998 164.18 102.88 161.5 102.72 158.95 101.6Z" fill="#dcb625"/>
<path transform="matrix(.7800905,0,0,.7800905,119.163028,95.076519)" d="M157.96 101.16 159.08 98.590007C159.8 96.50001 159.45 94.25 158.11 92.4 156.73 90.520008 154.51 89.1 151.82 88.380008L151.19 90.700008C150.54001 92.47 151.08 94.47 152.29001 96.36 153.45 98.23 155.41 100.03 157.96 101.16Z" fill="#dcb625"/>
<path transform="matrix(.7800905,0,0,.7800905,119.163028,95.076519)" d="M154.48 110.19C154.98999 109.39 155.5 108.590007 155.92 107.740009 156.94 105.76 158.97 104.53001 161.18 103.86001 163.45 103.23001 166.17 103.28001 168.73999 104.350009L167.43999 107.32001C166.95999 108.50001 166.07999 109.43001 165.13999 110.170009 164.17998 110.90001 163.06998 111.41 161.89998 111.670009 159.53 112.18 156.83 111.63 154.48 110.19Z" fill="#dcb625"/>
<path transform="matrix(.7800905,0,0,.7800905,119.163028,95.076519)" d="M153.55 109.62C154.05 108.83 154.56 108.05 154.97 107.21 155.98 105.25 155.99 103 154.83 100.95 153.73 98.92 151.73 97.21 149.16 96.14L148.19 98.35C147.85 99.229999 147.62 100.119998 147.7 101.1 147.76 102.07 148.06 103.09 148.55 104.119998 149.52 106.15 151.16 108.16 153.55 109.62Z" fill="#dcb625"/>
<path transform="matrix(.7800905,0,0,.7800905,119.163028,95.076519)" d="M148.91 118.12C149.55 117.420009 150.06 116.61 150.64 115.86 151.3 114.96 152.16 114.270008 153.16 113.76 154.12001 113.23 155.2 112.87 156.38 112.71 158.73001 112.4 161.43001 112.82 163.83 114.22L162.11 116.97C160.81 119.17 158.41 120.33 156.04 120.54 154.82999 120.64 153.61 120.49 152.4 120.07 151.16 119.65 149.99 118.99 148.91 118.12Z" fill="#dcb625"/>
<path transform="matrix(.7800905,0,0,.7800905,119.163028,95.076519)" d="M148.06 117.43C148.69 116.74 149.19 115.95 149.76 115.21 150.40999 114.32 150.81 113.31 150.95 112.26 151.04 111.18 150.86 110.060009 150.45999 108.990009 149.65999 106.840007 147.90999 104.89001 145.51 103.490009L144.23 105.53001C143.29 107.170009 143.11 109.12001 143.81 111.29001 144.15 112.36001 144.7 113.47001 145.4 114.52001 146.1 115.56 146.98 116.56 148.06 117.43Z" fill="#dcb625"/>
<path transform="matrix(.7800905,0,0,.7800905,119.163028,95.076519)" d="M142.33 125.24 144.33 123.22C145.95 121.68 148.03 120.86 150.44 120.87 152.84 120.89 155.44 121.66 157.62 123.36 156.98 124.23 156.23999 125.020008 155.54999 125.85 154.71999 126.82 153.72998 127.56 152.62 128.03 151.48 128.45999 150.26 128.65 149.04999 128.58 146.62 128.43 144.23 127.26 142.33 125.24Z" fill="#dcb625"/>
<path transform="matrix(.7800905,0,0,.7800905,119.163028,95.076519)" d="M141.58 124.45 143.55 122.46C145.15001 120.93 145.57 118.6 145.07 116.39 144.59001 114.17 143.1 112 140.89002 110.28 140.42002 110.93 139.85002 111.51 139.34001 112.13 138.72002 112.85 138.36002 113.729999 138.18001 114.689998 137.97 115.619998 137.96 116.67 138.15001 117.77 138.56 119.97 139.68 122.42 141.58 124.45Z" fill="#dcb625"/>
<path transform="matrix(.7800905,0,0,.7800905,119.163028,95.076519)" d="M134.83 131.38 137.11 129.68001C138.03 129.04001 138.99 128.54001 140.06 128.28002 141.13 128.03002 142.29 127.99001 143.48 128.16002 144.68 128.34001 145.87 128.69002 147.01 129.24002 148.15999 129.79003 149.26 130.56003 150.23999 131.55002L149.09999 132.70001 147.88999 133.77002C145.95999 135.45001 143.50998 136.13002 141.07999 135.60002 138.67 135.13 136.45 133.64 134.83 131.38Z" fill="#dcb625"/>
<path transform="matrix(.7800905,0,0,.7800905,119.163028,95.076519)" d="M134.2 130.5 136.45 128.82C137.34999 128.19 137.95 127.25001 138.34 126.25001 138.72 125.240009 138.87 124.14001 138.78 123.01001 138.7 121.90001 138.34 120.72001 137.76 119.58001 137.18999 118.45001 136.4 117.36001 135.42 116.37001L134.58 117.23001 133.67 118.02001C132.24 119.250019 131.72 121.280017 131.74 123.45001 131.8 125.67 132.58 128.23 134.2 130.5Z" fill="#dcb625"/>
<path transform="matrix(.7800905,0,0,.7800905,119.163028,95.076519)" d="M126.59 136.48 129.09999 135.14C130.98 133.94 133.29999 133.83 135.60999 134.48 137.86998 135.06999 140.18 136.48999 141.83998 138.72 140.96999 139.36 140.11998 140.03 139.22998 140.64 137.06998 142.01 134.53998 142.34 132.22998 141.55 129.9 140.72 127.89 138.94 126.59 136.48Z" fill="#dcb625"/>
<path transform="matrix(.7800905,0,0,.7800905,119.163028,95.076519)" d="M126.08 135.52 128.55 134.2C130.41 133.02 131.51001 131 131.62001 128.73999 131.69002 126.40999 130.83002 123.90999 129.16 121.68999 128.51001 122.15999 127.89001 122.66999 127.23 123.11999 125.62 124.109989 124.82 126.02999 124.590007 128.24999 124.36 130.43 124.78 133.06 126.08 135.52Z" fill="#dcb625"/>
<path transform="matrix(.7800905,0,0,.7800905,119.163028,95.076519)" d="M119.22 139.94 118.82 138.93001C121.25 137.82 123.76 136.86 126.08 135.52L126.590007 136.48001C124.24 137.84 121.69 138.82 119.22 139.94Z" fill="#dcb625"/>
<path transform="matrix(.7800905,0,0,.7800905,119.163028,95.076519)" d="M126.98 3.88C128.27 4.57 129.27 5.63 129.89 6.88 130.52 8.110001 130.69 9.68 130.52 11.18 129.23001 12.030001 127.91 12.47 126.560009 12.700001 125.22001 12.910001 123.950008 12.750001 122.810009 12.14 122.25001 11.820001 121.740009 11.450001 121.28001 11.030001 120.83001 10.590001 120.44001 10.080001 120.12 9.490001 119.48 8.320001 119.100009 6.890001 119.01 5.3400008 120.11 4.3200008 121.43 3.6300007 122.82 3.3600007 123.51 3.2200006 124.22 3.1900006 124.93 3.2600008 125.65 3.32 126.34 3.52 126.98 3.88Z" fill="#dcb625"/>
<path transform="matrix(.7800905,0,0,.7800905,119.163028,95.076519)" d="M39.15 15.66 41.4 13.98C42.260004 13.289999 43.36 13.03 44.41 12.929999 45.48 12.849999 46.58 13.03 47.63 13.44 49.75 14.28 51.7 16.16 53.02 18.58 52.31 18.96 51.59 19.31 50.93 19.77 50.13 20.28 49.23 20.52 48.24 20.54 47.75 20.550002 47.230005 20.5 46.72 20.410002 46.210004 20.340003 45.7 20.210001 45.170003 20.04 43.07 19.35 40.85 17.86 39.15 15.66Z" fill="#dcb625"/>
<path transform="matrix(.7800905,0,0,.7800905,119.163028,95.076519)" d="M38.48 14.8 40.76 13.1C41.629999 12.400001 42.42 11.67 42.96 10.690001 43.51 9.740001 43.87 8.630001 44.05 7.4400007 44.41 5.0800006 44.11 2.4600006 42.77 .00000047683718 41.82 .51000049 40.86 1.0000005 39.96 1.6100005 38.88 2.29 38 3.18 37.37 4.19 37.05 4.7 36.789999 5.23 36.6 5.8 36.42 6.38 36.3 6.9900004 36.239999 7.6000006 36 10.04 36.79 12.6 38.48 14.8Z" fill="#dcb625"/>
<path transform="matrix(.7800905,0,0,.7800905,119.163028,95.076519)" d="M32.03 21.93C32.69 21.27 33.329999 20.59 34.02 19.960001 35.7 18.53 37.91 18.01 40.14 18.61 42.39 19.210001 44.52 20.76 46.17 22.990002L44.239999 24.430003C42.809999 25.660002 40.789999 25.920002 38.559999 25.460003 36.4 25.05 34.01 23.88 32.03 21.93Z" fill="#dcb625"/>
<path transform="matrix(.7800905,0,0,.7800905,119.163028,95.076519)" d="M31.26 21.16C31.93 20.49 32.58 19.8 33.28 19.16 34.98 17.71 35.71 15.48 35.8 13.129999 35.88 10.789999 35.19 8.169999 33.54 5.9299995L30.95 7.8699996C29 9.5199999 27.990002 11.9 28.050002 14.299999 28.16 16.76 29.29 19.2 31.26 21.16Z" fill="#dcb625"/>
<path transform="matrix(.7800905,0,0,.7800905,119.163028,95.076519)" d="M25.8 29.07 26.63 27.94 27.539999 26.87C28.98 25.19 31.099999 24.390002 33.42 24.720002 35.71 25.000002 38.019998 26.240002 39.949998 28.240002L38.249998 29.95C37.559999 30.6 36.779996 31.1 35.859998 31.400002 34.94 31.7 33.879999 31.800002 32.749998 31.710001 31.609997 31.62 30.429997 31.380002 29.259997 30.95 28.09 30.53 26.91 29.91 25.8 29.07Z" fill="#dcb625"/>
<path transform="matrix(.7800905,0,0,.7800905,119.163028,95.076519)" d="M24.93 28.41 25.77 27.26 26.69 26.18C28.140002 24.49 28.58 22.18 28.390002 19.86 28.16 17.52 27.11 15 25.18 13L22.9 15.3C21.98 16.19 21.41 17.31 21.08 18.470002 20.75 19.640002 20.68 20.850003 20.87 22.04 21.04 23.220002 21.51 24.400002 22.210001 25.490002 22.91 26.58 23.83 27.56 24.93 28.41Z" fill="#dcb625"/>
<path transform="matrix(.7800905,0,0,.7800905,119.163028,95.076519)" d="M20.55 36.96C21 36.14 21.529999 35.37 22.019999 34.57 22.609999 33.64 23.39 32.89 24.339999 32.4 25.319998 31.930003 26.419999 31.680003 27.559998 31.660002 29.849999 31.62 32.289999 32.54 34.469999 34.27L33.049997 36.22C31.879996 37.7 30.089997 38.550004 27.839997 38.7 25.58 38.83 22.95 38.32 20.55 36.96Z" fill="#dcb625"/>
<path transform="matrix(.7800905,0,0,.7800905,119.163028,95.076519)" d="M19.6 36.42C20.06 35.589998 20.59 34.8 21.09 33.989999 21.69 33.05 22 31.979998 22.130002 30.879998 22.29 29.799998 22.220002 28.659998 21.93 27.499997 21.36 25.189997 19.98 22.829997 17.810002 21.099997L15.890001 23.709998C14.330002 25.729998 14.080002 28.359997 14.770001 30.669999 15.46 32.99 17.17 35.04 19.6 36.42Z" fill="#dcb625"/>
<path transform="matrix(.7800905,0,0,.7800905,119.163028,95.076519)" d="M16.42 45.49 17.55 42.920003C17.769999 42.420003 18.05 41.95 18.38 41.54 18.72 41.13 19.15 40.780004 19.59 40.48 20.49 39.88 21.53 39.48 22.65 39.3 24.869999 38.93 27.49 39.559999 29.869999 40.989999 29.41 41.649999 29.079998 42.39 28.699999 43.089998 28.259999 43.929998 27.589999 44.589998 26.739998 45.099996 25.919999 45.619997 24.969998 46.019994 23.869999 46.239995 21.68 46.69 18.99 46.53 16.42 45.49Z" fill="#dcb625"/>
<path transform="matrix(.7800905,0,0,.7800905,119.163028,95.076519)" d="M15.41 45.08 16.55 42.47C16.769999 41.960004 16.929999 41.43 17.019999 40.89 17.119999 40.35 17.199999 39.82 17.199999 39.27 17.199999 38.170003 16.97 37.04 16.529999 35.93 15.619999 33.69 14.019999 31.57 11.629999 30.150002 11.029999 31.050002 10.559999 32.02 10.049999 32.97 9.449999 34.09 9.139999 35.300004 9.089999 36.49 9.069999 37.690004 9.369999 38.910005 9.869999 40.010004 10.87 42.24 12.83 44.04 15.41 45.08Z" fill="#dcb625"/>
<path transform="matrix(.7800905,0,0,.7800905,119.163028,95.076519)" d="M13.46 54.5 14.190001 51.79C14.830001 49.68 16.630002 48.170003 18.76 47.52 20.970002 46.89 23.64 47.16 26.18 48.260004 25.87 49.000005 25.49 49.710004 25.26 50.480005 24.95 51.370004 24.39 52.120004 23.62 52.750005 23.240002 53.060007 22.810002 53.340005 22.34 53.580007 21.89 53.830007 21.41 54.060007 20.89 54.240007 18.82 54.98 16.16 55.19 13.46 54.5Z" fill="#dcb625"/>
<path transform="matrix(.7800905,0,0,.7800905,119.163028,95.076519)" d="M12.41 54.23 13.15 51.48C13.79 49.35 13.46 47.11 12.259999 44.989999 11.119999 42.92 9.24 41.019998 6.6799995 39.92 6.2599995 40.92 5.7799994 41.89 5.4499995 42.92 5.0199997 44.12 4.879999 45.359998 5.0099995 46.559999 5.069999 47.159997 5.1999995 47.739999 5.3899996 48.3 5.5999996 48.87 5.879999 49.42 6.2099997 49.94 7.52 52 9.72 53.54 12.41 54.23Z" fill="#dcb625"/>
<path transform="matrix(.7800905,0,0,.7800905,119.163028,95.076519)" d="M11.71 63.81C11.83 62.88 11.88 61.95 12.07 61.030004 12.509999 58.870004 13.91 57.090005 16.06 56.200006 18.199999 55.290006 20.83 55.190008 23.509999 55.940008L22.88 58.260007C22.49 60.100008 21.09 61.560007 19.029999 62.570009 17.07 63.58 14.47 64.14 11.71 63.81Z" fill="#dcb625"/>
<path transform="matrix(.7800905,0,0,.7800905,119.163028,95.076519)" d="M10.63 63.68C10.76 62.74 10.81 61.79 10.99 60.86 11.2 59.760004 11.12 58.670003 10.809999 57.600004 10.499999 56.54 9.919999 55.49 9.259999 54.550004 7.879999 52.65 5.7199995 51.010004 3.0399996 50.260004L2.1999994 53.390005C1.6599994 55.880006 2.3699995 58.390005 3.8599995 60.24 5.4700005 62.12 7.87 63.36 10.63 63.68Z" fill="#dcb625"/>
<path transform="matrix(.7800905,0,0,.7800905,119.163028,95.076519)" d="M11.18 73.34C11.110001 72.409999 11.190001 71.46999 11.21 70.53999 11.25 69.439998 11.57 68.399997 12.12 67.48999 12.66 66.57999 13.55 65.80999 14.51 65.21999 16.48 64.02999 19.060002 63.579996 21.82 63.969995L21.55 66.35999C21.5 66.829998 21.369999 67.27999 21.189999 67.71999 21.039999 68.159999 20.829998 68.579998 20.56 68.979999 20.019999 69.78 19.26 70.509998 18.32 71.149997 16.41 72.4 13.97 73.3 11.18 73.34Z" fill="#dcb625"/>
<path transform="matrix(.7800905,0,0,.7800905,119.163028,95.076519)" d="M10.1 73.36C10.030001 72.41 10.110001 71.46 10.13 70.520008 10.17 69.4 9.93 68.33 9.46 67.310009 8.98 66.3 8.41 65.350009 7.57 64.50001 5.9300005 62.800008 3.5500003 61.460008 .8000002 61.070009L.4300002 64.29001C.3600002 64.920009 .3600002 65.55001 .4300002 66.15001 .5400002 66.76001 .71000018 67.350009 .9400002 67.91001 1.4100002 69.030017 2.1100002 70.030017 2.9900003 70.85001 4.73 72.5 7.32 73.4 10.1 73.36Z" fill="#dcb625"/>
<path transform="matrix(.7800905,0,0,.7800905,119.163028,95.076519)" d="M11.93 82.86 11.610001 80.07C11.290001 77.88 12.420001 75.79 14.17 74.36 15.940001 72.92 18.42 72.13 21.220002 72.15 21.210001 72.950008 21.28 73.76 21.300002 74.560009 21.340003 75.51 21.070002 76.420009 20.62 77.29001 20.210001 78.15001 19.560002 78.98001 18.730002 79.73001 17.07 81.22 14.68 82.45 11.93 82.86Z" fill="#dcb625"/>
<path transform="matrix(.7800905,0,0,.7800905,119.163028,95.076519)" d="M10.85 83.02 10.530001 80.189998C10.210001 77.979999 9.080001 76.03999 7.1900007 74.56 5.31 73.1 2.76 72.09 0 72.07-.010000001 73.15 .060000004 74.23 .09 75.31 .14000002 76.579998 .46 77.78 1.0400001 78.829998 1.6700001 79.88 2.5100003 80.77 3.5100003 81.46999 5.5 82.87 8.1 83.43 10.85 83.02Z" fill="#dcb625"/>
<path transform="matrix(.7800905,0,0,.7800905,119.163028,95.076519)" d="M13.98 92.19 13.25 89.48C12.93 88.420009 13.06 87.32 13.37 86.29 13.69 85.26 14.26 84.3 15.03 83.48 16.56 81.82 19.05 80.69 21.779999 80.340007 21.859999 81.14001 21.949999 81.94 22.13 82.72 22.509999 84.57 21.64 86.49 20.279999 88.18 18.84 89.88 16.65 91.41 13.98 92.19Z" fill="#dcb625"/>
<path transform="matrix(.7800905,0,0,.7800905,119.163028,95.076519)" d="M12.93 92.49 12.190001 89.74C11.860001 88.67 11.440001 87.68 10.75 86.82 10.07 85.96 9.17 85.21 8.13 84.61 6.05 83.41 3.5100003 82.73 .73 83.090007 .84000006 84.16 .98 85.240009 1.2 86.29 1.69 88.8 3.17 90.86 5.41 91.95 7.6 93.06 10.26 93.26 12.93 92.49Z" fill="#dcb625"/>
<path transform="matrix(.7800905,0,0,.7800905,119.163028,95.076519)" d="M17.23 101.16 16.109999 98.590007C15.389998 96.50001 15.739999 94.25 17.079998 92.4 18.459998 90.520008 20.679999 89.1 23.369999 88.380008L24 90.71C24.65 92.479999 24.11 94.479999 22.9 96.369998 21.74 98.23 19.78 100.03 17.23 101.16Z" fill="#dcb625"/>
<path transform="matrix(.7800905,0,0,.7800905,119.163028,95.076519)" d="M16.24 101.6 15.099999 98.99C14.369999 96.88 12.599999 95.369998 10.4 94.439998 8.259999 93.509998 5.5599997 93.189998 2.8799997 93.909999L3.7399998 97.03999C4.5899999 99.45 6.39 101.27 8.68 102.079998 11.01 102.88 13.7 102.72 16.24 101.6Z" fill="#dcb625"/>
<path transform="matrix(.7800905,0,0,.7800905,119.163028,95.076519)" d="M21.64 109.62C21.14 108.83 20.63 108.05 20.22 107.21 19.21 105.25 19.199999 103 20.359999 100.95 21.46 98.92 23.46 97.21 26.029999 96.14L26.999999 98.35C27.339999 99.229999 27.569998 100.119998 27.489998 101.1 27.429999 102.07 27.129998 103.09 26.639998 104.119998 25.67 106.15 24.03 108.16 21.64 109.62Z" fill="#dcb625"/>
<path transform="matrix(.7800905,0,0,.7800905,119.163028,95.076519)" d="M20.72 110.19C20.21 109.39 19.699999 108.590007 19.279999 107.740009 18.259999 105.76 16.23 104.53001 14.019999 103.86001 11.749998 103.23001 9.029999 103.28001 6.4599988 104.350009L7.7599985 107.32001C8.239998 108.50001 9.119998 109.43001 10.0599989 110.170009 11.019999 110.90001 12.129998 111.41 13.299998 111.670009 15.66 112.18 18.36 111.63 20.72 110.19Z" fill="#dcb625"/>
<path transform="matrix(.7800905,0,0,.7800905,119.163028,95.076519)" d="M27.13 117.43C26.5 116.74 26 115.95 25.429999 115.21 24.779999 114.32 24.38 113.31 24.239998 112.26 24.149998 111.18 24.329998 110.060009 24.729998 108.990009 25.529997 106.840007 27.279997 104.89001 29.679997 103.490009L30.959998 105.53001C31.899998 107.170009 32.079999 109.12001 31.379998 111.29001 31.039998 112.36001 30.489998 113.47001 29.789998 114.52001 29.1 115.56 28.21 116.56 27.13 117.43Z" fill="#dcb625"/>
<path transform="matrix(.7800905,0,0,.7800905,119.163028,95.076519)" d="M26.28 118.12C25.640002 117.420009 25.130002 116.61 24.550002 115.86 23.890002 114.96 23.03 114.270008 22.03 113.76 21.07 113.23 19.990002 112.87 18.810002 112.71 16.460001 112.4 13.760001 112.82 11.360002 114.22L13.080002 116.97C14.380002 119.17 16.780003 120.33 19.150002 120.54 20.36 120.64 21.580002 120.49 22.79 120.07 24.03 119.65 25.2 118.99 26.28 118.12Z" fill="#dcb625"/>
<path transform="matrix(.7800905,0,0,.7800905,119.163028,95.076519)" d="M33.61 124.45 31.640002 122.46C30.04 120.93 29.62 118.6 30.12 116.39 30.6 114.17 32.09 112 34.3 110.28 34.77 110.93 35.34 111.51 35.85 112.13 36.469999 112.85 36.829999 113.729999 37.01 114.689998 37.219999 115.619998 37.23 116.67 37.039999 117.77 36.64 119.97 35.51 122.42 33.61 124.45Z" fill="#dcb625"/>
<path transform="matrix(.7800905,0,0,.7800905,119.163028,95.076519)" d="M32.86 125.24 30.86 123.22C29.24 121.68 27.16 120.86 24.75 120.87 22.35 120.89 19.75 121.66 17.57 123.36 18.21 124.23 18.949999 125.020008 19.64 125.85 20.47 126.82 21.46 127.56 22.57 128.03 23.71 128.45999 24.93 128.65 26.14 128.58 28.57 128.43 30.96 127.26 32.86 125.24Z" fill="#dcb625"/>
<path transform="matrix(.7800905,0,0,.7800905,119.163028,95.076519)" d="M41 130.5 38.75 128.82C37.85 128.19 37.25 127.25001 36.86 126.25001 36.48 125.240009 36.33 124.14001 36.420003 123.01001 36.500005 121.90001 36.86 120.72001 37.440004 119.58001 38.010004 118.45001 38.800004 117.36001 39.780004 116.37001L40.620004 117.23001 41.530004 118.02001C42.960004 119.250019 43.480005 121.280017 43.460004 123.45001 43.39 125.67 42.61 128.23 41 130.5Z" fill="#dcb625"/>
<path transform="matrix(.7800905,0,0,.7800905,119.163028,95.076519)" d="M40.36 131.38 38.08 129.68001C37.160005 129.04001 36.2 128.54001 35.13 128.28002 34.06 128.03002 32.9 127.99001 31.710001 128.16002 30.51 128.34001 29.320002 128.69002 28.18 129.24002 27.03 129.79003 25.93 130.56003 24.95 131.55002L26.09 132.70001 27.31 133.77002C29.24 135.45001 31.689999 136.13002 34.12 135.60002 36.53 135.13 38.75 133.64 40.36 131.38Z" fill="#dcb625"/>
<path transform="matrix(.7800905,0,0,.7800905,119.163028,95.076519)" d="M49.11 135.52 46.64 134.2C44.78 133.02 43.68 131 43.57 128.73999 43.5 126.40999 44.36 123.90999 46.03 121.68999 46.68 122.15999 47.3 122.66999 47.96 123.11999 49.57 124.109989 50.37 126.02999 50.6 128.24999 50.83 130.43 50.41 133.06 49.11 135.52Z" fill="#dcb625"/>
<path transform="matrix(.7800905,0,0,.7800905,119.163028,95.076519)" d="M48.6 136.48 46.09 135.14C44.21 133.94 41.89 133.83 39.58 134.48 37.320005 135.06999 35.010004 136.48999 33.350004 138.72 34.22 139.36 35.070005 140.03 35.960004 140.64 38.120004 142.01 40.65 142.34 42.960004 141.55 45.29 140.72 47.3 138.94 48.6 136.48Z" fill="#dcb625"/>
<path transform="matrix(.7800905,0,0,.7800905,119.163028,95.076519)" d="M56.37 138.93 55.969999 139.93999C53.499998 138.81999 50.949998 137.83998 48.6 136.47998L49.109998 135.51998C51.43 136.86 53.94 137.82 56.37 138.93Z" fill="#dcb625"/>
<path transform="matrix(.7800905,0,0,.7800905,119.163028,95.076519)" d="M52.37 12.15C51.239999 12.759999 49.96 12.91 48.62 12.71 47.27 12.4800009 45.96 12.04 44.66 11.190001 44.49 9.690001 44.66 8.110001 45.29 6.8900005 45.91 5.6400005 46.91 4.5800006 48.2 3.8900004 48.84 3.5300003 49.530004 3.3300005 50.24 3.2700005 50.95 3.2000006 51.660005 3.2300006 52.350004 3.3700004 53.74 3.6400004 55.050004 4.3300006 56.160005 5.3500006 56.070005 6.9000008 55.690004 8.33 55.050004 9.5 54.730005 10.08 54.340005 10.6 53.890005 11.04 53.44 11.46 52.93 11.83 52.37 12.15Z" fill="#dcb625"/>
</g>
<g clip-path="url(#clip_7)">
<text fill="#ffffff" xml:space="preserve" transform="matrix(.6715259 .33399538 -.33399538 .6715259 143.55944 252.77519)" font-size="21.89" font-family="Montserrat" font-weight="bold"><tspan y="21" x="0">-</tspan></text>
<text fill="#ffffff" xml:space="preserve" transform="matrix(.6952724 .28124059 -.28124059 .6952724 148.32495 255.28412)" font-size="21.89" font-family="Montserrat" font-weight="bold"><tspan y="21" x="0">E</tspan></text>
<text fill="#ffffff" xml:space="preserve" transform="matrix(.71924898 .21255802 -.21255802 .71924898 157.68517 259.1073)" font-size="21.89" font-family="Montserrat" font-weight="bold"><tspan y="21" x="0">S</tspan></text>
<text fill="#ffffff" xml:space="preserve" transform="matrix(.73579266 .14528993 -.14528993 .73579266 166.94365 261.87394)" font-size="21.89" font-family="Montserrat" font-weight="bold"><tspan y="21" x="0">T</tspan></text>
<text fill="#ffffff" xml:space="preserve" transform="matrix(.746724 .070023339 -.070023339 .746724 175.7891 263.7383)" font-size="21.89" font-family="Montserrat" font-weight="bold"><tspan y="21" x="0">D</tspan></text>
<text fill="#ffffff" xml:space="preserve" transform="matrix(.7498507 .014962792 -.014962792 .7498507 187.60697 264.7113)" font-size="21.89" font-family="Montserrat" font-weight="bold"><tspan y="21" x="0"> </tspan></text>
<text fill="#ffffff" xml:space="preserve" transform="matrix(.7499243 -.01065652 .01065652 .7499243 191.07616 264.7863)" font-size="21.89" font-family="Montserrat" font-weight="bold"><tspan y="21" x="0"> </tspan></text>
<text fill="#ffffff" xml:space="preserve" transform="matrix(.7491228 -.0362634 .0362634 .7491228 194.5459 264.7428)" font-size="21.89" font-family="Montserrat" font-weight="bold"><tspan y="21" x="0"> </tspan></text>
<text fill="#ffffff" xml:space="preserve" transform="matrix(.74549797 -.08205344 .08205344 .74549797 197.7554 264.6983)" font-size="21.89" font-family="Montserrat" font-weight="bold"><tspan y="21" x="0">2</tspan></text>
<text fill="#ffffff" xml:space="preserve" transform="matrix(.734211 -.15308225 .15308225 .734211 206.6212 263.80937)" font-size="21.89" font-family="Montserrat" font-weight="bold"><tspan y="21" x="0">0</tspan></text>
<text fill="#ffffff" xml:space="preserve" transform="matrix(.7161726 -.22270341 .22270341 .7161726 216.99474 261.65007)" font-size="21.89" font-family="Montserrat" font-weight="bold"><tspan y="21" x="0">2</tspan></text>
<text fill="#ffffff" xml:space="preserve" transform="matrix(.6937299 -.2850243 .2850243 .6937299 225.58155 259.01985)" font-size="21.89" font-family="Montserrat" font-weight="bold"><tspan y="21" x="0">2</tspan></text>
<text fill="#ffffff" xml:space="preserve" transform="matrix(.6715259 -.33399538 .33399538 .6715259 234.0191 255.5098)" font-size="21.89" font-family="Montserrat" font-weight="bold"><tspan y="21" x="0">-</tspan></text>
</g>
</svg>
